<svg xmlns="http://www.w3.org/2000/svg" viewBox="0 0 500 500">
  <!-- 右上雲朵（暗色） -->
  <g opacity="0.16">
    <ellipse cx="395" cy="48" rx="85" ry="34" fill="#7EC0E8"/>
    <ellipse cx="432" cy="30" rx="58" ry="28" fill="#7EC0E8"/>
    <ellipse cx="358" cy="40" rx="45" ry="22" fill="#7EC0E8"/>
  </g>
  <!-- 左側熱氣球（暗色） -->
  <g transform="translate(50,38)" opacity="0.25">
    <ellipse cx="0" cy="0" rx="40" ry="50" fill="#305868"/>
    <ellipse cx="0" cy="0" rx="40" ry="50" fill="#306848" clip-path="inset(0 50% 0 0)"/>
    <rect x="-14" y="50" width="28" height="15" rx="5" fill="#504020"/>
    <line x1="-16" y1="50" x2="-14" y2="65" stroke="#403018" stroke-width="2"/>
    <line x1="16" y1="50" x2="14" y2="65" stroke="#403018" stroke-width="2"/>
  </g>
  <!-- 海鷗（暗色） -->
  <g stroke="#7EC0E8" fill="none" stroke-width="2.5" stroke-linecap="round" opacity="0.22">
    <path d="M280 100 Q288 88 296 100 Q304 88 312 100"/>
    <path d="M335 72 Q342 62 349 72 Q356 62 363 72"/>
    <path d="M240 125 Q247 116 254 125 Q261 116 268 125"/>
  </g>
  <!-- 底部海浪（暗色） -->
  <g opacity="0.22">
    <path d="M0 400 Q50 372 100 400 Q150 428 200 400 Q250 372 300 400 Q350 428 400 400 Q450 372 500 400 L500 500 L0 500Z" fill="#203848"/>
    <path d="M0 428 Q50 408 100 428 Q150 448 200 428 Q250 408 300 428 Q350 448 400 428 Q450 408 500 428 L500 500 L0 500Z" fill="#285040" opacity="0.5"/>
  </g>
  <!-- 右下帆船（降亮度） -->
  <g transform="translate(378,360)" opacity="0.18">
    <path d="M0 0 L6 -52 L12 0Z" fill="#406878"/>
    <path d="M6 -46 L-16 0 L6 0Z" fill="#406050"/>
    <ellipse cx="0" cy="3" rx="25" ry="6" fill="#403828"/>
  </g>
  <!-- 星點 7 個 -->
  <circle cx="200" cy="55" r="2.5" fill="#fff" opacity="0.20"/>
  <circle cx="320" cy="160" r="2" fill="#fff" opacity="0.18"/>
  <circle cx="440" cy="200" r="2.2" fill="#fff" opacity="0.15"/>
  <circle cx="150" cy="250" r="1.8" fill="#fff" opacity="0.12"/>
  <circle cx="280" cy="300" r="2.5" fill="#fff" opacity="0.10"/>
  <circle cx="100" cy="180" r="1.5" fill="#fff" opacity="0.18"/>
  <circle cx="400" cy="130" r="1.8" fill="#fff" opacity="0.14"/>
</svg>
