<svg xmlns="http://www.w3.org/2000/svg" viewBox="0 0 500 500">
  <!-- 右上角大太陽：圓 + 8 條光芒線（暗色） -->
  <g transform="translate(430,50)">
    <circle r="58" fill="#F4A08A" opacity="0.25"/>
    <g stroke="#F4A08A" stroke-width="4.5" stroke-linecap="round" opacity="0.22">
      <line x1="-76" y1="0" x2="-63" y2="0"/>
      <line x1="63" y1="0" x2="76" y2="0"/>
      <line x1="0" y1="-76" x2="0" y2="-63"/>
      <line x1="0" y1="63" x2="0" y2="76"/>
      <line x1="-54" y1="-54" x2="-45" y2="-45"/>
      <line x1="45" y1="-45" x2="54" y2="-54"/>
      <line x1="-54" y1="54" x2="-45" y2="45"/>
      <line x1="45" y1="45" x2="54" y2="54"/>
    </g>
  </g>
  <!-- 左側大椰子樹（暗綠） -->
  <g transform="translate(22,210)" opacity="0.25">
    <rect x="14" y="58" width="11" height="130" rx="5.5" fill="#504020"/>
    <ellipse cx="19" cy="58" rx="56" ry="17" fill="#204820" transform="rotate(-30 19 58)"/>
    <ellipse cx="19" cy="58" rx="50" ry="15" fill="#285028" transform="rotate(25 19 58)"/>
    <ellipse cx="19" cy="58" rx="48" ry="15" fill="#204820" transform="rotate(-65 19 58)"/>
    <ellipse cx="19" cy="58" rx="42" ry="13" fill="#285028" transform="rotate(55 19 58)"/>
  </g>
  <!-- 底部海浪（暗色） -->
  <g opacity="0.22">
    <path d="M0 395 Q50 365 100 395 Q150 425 200 395 Q250 365 300 395 Q350 425 400 395 Q450 365 500 395 L500 500 L0 500Z" fill="#183848"/>
    <path d="M0 422 Q50 400 100 422 Q150 444 200 422 Q250 400 300 422 Q350 444 400 422 Q450 400 500 422 L500 500 L0 500Z" fill="#204858" opacity="0.6"/>
  </g>
  <!-- 飛機剪影（暗色） -->
  <g transform="translate(198,75) rotate(-12) scale(2.5)" opacity="0.20">
    <path d="M0 0 L-8 4 L-30 4 L-35 10 L-30 4 L-50 6 L-50 2 L-30 2 L-8 -4Z" fill="#F4A08A"/>
    <path d="M-15 2 L-20 12 L-18 12 L-12 2" fill="#F4A08A"/>
  </g>
  <!-- 星點 -->
  <circle cx="150" cy="50" r="2.5" fill="#F4A08A" opacity="0.25"/>
  <circle cx="300" cy="80" r="2" fill="#fff" opacity="0.15"/>
  <circle cx="80" cy="120" r="2.2" fill="#fff" opacity="0.12"/>
  <circle cx="350" cy="200" r="1.8" fill="#fff" opacity="0.10"/>
  <circle cx="250" cy="150" r="1.5" fill="#fff" opacity="0.12"/>
</svg>
