<svg xmlns="http://www.w3.org/2000/svg" viewBox="0 0 500 500">
  <!-- 右上大片雲朵 -->
  <g opacity="0.30">
    <ellipse cx="395" cy="48" rx="90" ry="36" fill="#5BA4CF"/>
    <ellipse cx="435" cy="28" rx="62" ry="30" fill="#6BB4D8"/>
    <ellipse cx="355" cy="38" rx="50" ry="25" fill="#5BA4CF"/>
  </g>
  <!-- 左上小雲朵 -->
  <g opacity="0.18">
    <ellipse cx="85" cy="125" rx="60" ry="24" fill="#5BA4CF"/>
    <ellipse cx="115" cy="112" rx="42" ry="20" fill="#6BB4D8"/>
  </g>
  <!-- 左側大熱氣球 -->
  <g transform="translate(50,35)" opacity="0.45">
    <ellipse cx="0" cy="0" rx="42" ry="54" fill="#5BA4CF"/>
    <ellipse cx="0" cy="0" rx="42" ry="54" fill="#7ECBB0" clip-path="inset(0 50% 0 0)"/>
    <rect x="-5" y="-18" width="10" height="54" fill="none" stroke="#fff" stroke-width="2" opacity="0.35" rx="2"/>
    <rect x="-15" y="54" width="30" height="16" rx="5" fill="#A07030"/>
    <line x1="-18" y1="54" x2="-15" y2="70" stroke="#806020" stroke-width="2.5"/>
    <line x1="18" y1="54" x2="15" y2="70" stroke="#806020" stroke-width="2.5"/>
  </g>
  <!-- 海鷗 4 隻（V 形） -->
  <g stroke="#5BA4CF" fill="none" stroke-width="3" stroke-linecap="round" opacity="0.35">
    <path d="M280 100 Q288 88 296 100 Q304 88 312 100"/>
    <path d="M335 72 Q342 62 349 72 Q356 62 363 72"/>
    <path d="M240 125 Q247 116 254 125 Q261 116 268 125"/>
    <path d="M195 148 Q201 140 207 148 Q213 140 219 148"/>
  </g>
  <!-- 底部三層海浪 -->
  <g opacity="0.42">
    <path d="M0 395 Q50 365 100 395 Q150 425 200 395 Q250 365 300 395 Q350 425 400 395 Q450 365 500 395 L500 500 L0 500Z" fill="#5BA4CF"/>
    <path d="M0 420 Q50 400 100 420 Q150 440 200 420 Q250 400 300 420 Q350 440 400 420 Q450 400 500 420 L500 500 L0 500Z" fill="#7ECBB0" opacity="0.55"/>
    <path d="M0 448 Q50 436 100 448 Q150 460 200 448 Q250 436 300 448 Q350 460 400 448 Q450 436 500 448 L500 500 L0 500Z" fill="#5BA4CF" opacity="0.25"/>
  </g>
  <!-- 右下帆船 -->
  <g transform="translate(375,355)" opacity="0.35">
    <path d="M0 0 L7 -58 L14 0Z" fill="#5BA4CF"/>
    <path d="M7 -52 L-20 0 L7 0Z" fill="#7ECBB0"/>
    <ellipse cx="0" cy="4" rx="28" ry="7" fill="#906830"/>
  </g>
</svg>
