<svg xmlns="http://www.w3.org/2000/svg" viewBox="0 0 500 500">
  <!-- 右上鳥居（暗色） -->
  <g transform="translate(392,35)" opacity="0.22">
    <rect x="-40" y="14" width="12" height="95" fill="#D4A88E"/>
    <rect x="28" y="14" width="12" height="95" fill="#D4A88E"/>
    <rect x="-50" y="0" width="100" height="12" rx="3" fill="#D4A88E"/>
    <rect x="-46" y="18" width="92" height="7" fill="#D4A88E"/>
  </g>
  <!-- 底部遠山（暗色） -->
  <g opacity="0.15">
    <path d="M-30 500 L120 310 L270 500Z" fill="#405040"/>
    <path d="M70 500 L240 270 L410 500Z" fill="#384858"/>
    <path d="M290 500 L410 355 L530 500Z" fill="#405040" opacity="0.5"/>
  </g>
  <!-- 左上櫻花枝（暗色） -->
  <g transform="translate(5,58)" opacity="0.25">
    <path d="M0 78 Q38 48 78 60 Q112 66 148 32 Q165 18 182 22 Q195 18 202 13" stroke="#504020" fill="none" stroke-width="4.5" stroke-linecap="round"/>
    <circle cx="68" cy="33" r="9" fill="#685050" opacity="0.65"/>
    <circle cx="95" cy="50" r="8" fill="#685050" opacity="0.55"/>
    <circle cx="125" cy="38" r="10" fill="#685050" opacity="0.65"/>
    <circle cx="155" cy="25" r="9" fill="#685050" opacity="0.65"/>
    <circle cx="182" cy="18" r="8" fill="#685050" opacity="0.55"/>
    <circle cx="202" cy="12" r="7" fill="#685050" opacity="0.50"/>
  </g>
  <!-- 散落花瓣（暗色） -->
  <g opacity="0.18">
    <ellipse cx="220" cy="130" rx="4.5" ry="6.5" fill="#685050" transform="rotate(30 220 130)"/>
    <ellipse cx="370" cy="155" rx="4.5" ry="6.5" fill="#685050" transform="rotate(50 370 155)"/>
    <ellipse cx="320" cy="240" rx="3.5" ry="5.5" fill="#685050" transform="rotate(-15 320 240)"/>
    <ellipse cx="180" cy="210" rx="4" ry="6" fill="#685050" transform="rotate(40 180 210)"/>
    <ellipse cx="440" cy="230" rx="3.5" ry="5" fill="#685050" transform="rotate(-30 440 230)"/>
  </g>
  <!-- 右下禪圓（暗色） -->
  <circle cx="435" cy="420" r="56" stroke="#D4A88E" fill="none" stroke-width="4.5" opacity="0.14"/>
  <!-- 禪圓下方波紋線 -->
  <path d="M418 468 Q435 454 452 468" stroke="#D4A88E" fill="none" stroke-width="2.5" opacity="0.10"/>
</svg>
