<svg xmlns="http://www.w3.org/2000/svg" viewBox="0 0 500 500">
  <!-- 右上鳥居 -->
  <g transform="translate(392,35)" opacity="0.42">
    <rect x="-40" y="14" width="12" height="95" fill="#B8856C"/>
    <rect x="28" y="14" width="12" height="95" fill="#B8856C"/>
    <rect x="-50" y="0" width="100" height="12" rx="3" fill="#B8856C"/>
    <rect x="-46" y="18" width="92" height="7" fill="#B8856C"/>
  </g>
  <!-- 底部遠山 -->
  <g opacity="0.28">
    <path d="M-30 500 L120 300 L270 500Z" fill="#9EB8A8"/>
    <path d="M70 500 L240 260 L410 500Z" fill="#7A8B9A"/>
    <path d="M240 260 L215 300 L265 300Z" fill="#E8E2D8"/>
    <path d="M290 500 L410 345 L530 500Z" fill="#9EB8A8" opacity="0.6"/>
  </g>
  <!-- 左上櫻花枝 -->
  <g transform="translate(5,55)" opacity="0.45">
    <path d="M0 80 Q40 50 80 62 Q115 68 150 32 Q168 16 185 22 Q198 18 205 12" stroke="#705020" fill="none" stroke-width="5" stroke-linecap="round"/>
    <path d="M75 62 Q62 48 68 36" stroke="#705020" fill="none" stroke-width="3" stroke-linecap="round"/>
    <circle cx="68" cy="32" r="10" fill="#E8A0A0" opacity="0.75"/>
    <circle cx="62" cy="37" r="7" fill="#D89090" opacity="0.6"/>
    <circle cx="95" cy="52" r="9" fill="#E8A0A0" opacity="0.70"/>
    <circle cx="125" cy="40" r="11" fill="#E8A0A0" opacity="0.75"/>
    <circle cx="118" cy="45" r="7.5" fill="#D89090" opacity="0.6"/>
    <circle cx="155" cy="26" r="10" fill="#E8A0A0" opacity="0.75"/>
    <circle cx="180" cy="18" r="9" fill="#E8A0A0" opacity="0.70"/>
    <circle cx="186" cy="22" r="6" fill="#D89090" opacity="0.55"/>
    <circle cx="205" cy="11" r="7.5" fill="#E8A0A0" opacity="0.65"/>
    <circle cx="50" cy="65" r="7" fill="#E8A0A0" opacity="0.55"/>
  </g>
  <!-- 散落花瓣（8 個小橢圓） -->
  <g opacity="0.35">
    <ellipse cx="220" cy="130" rx="5" ry="7" fill="#E8A0A0" transform="rotate(30 220 130)"/>
    <ellipse cx="280" cy="190" rx="4.5" ry="6.5" fill="#E8A0A0" transform="rotate(-25 280 190)"/>
    <ellipse cx="370" cy="155" rx="5" ry="7" fill="#E8A0A0" transform="rotate(50 370 155)"/>
    <ellipse cx="320" cy="240" rx="4" ry="6" fill="#E8A0A0" transform="rotate(-15 320 240)"/>
    <ellipse cx="180" cy="210" rx="4.5" ry="6.5" fill="#E8A0A0" transform="rotate(40 180 210)"/>
    <ellipse cx="440" cy="230" rx="4" ry="5.5" fill="#E8A0A0" transform="rotate(-30 440 230)"/>
    <ellipse cx="120" cy="290" rx="4.5" ry="6.5" fill="#E8A0A0" transform="rotate(20 120 290)"/>
    <ellipse cx="350" cy="300" rx="3.5" ry="5" fill="#E8A0A0" transform="rotate(-40 350 300)"/>
  </g>
  <!-- 右下禪圓（ensō circle） -->
  <circle cx="435" cy="420" r="60" stroke="#B8856C" fill="none" stroke-width="5" opacity="0.25"/>
  <!-- 禪圓下方波紋線 -->
  <path d="M418 470 Q435 455 452 470" stroke="#B8856C" fill="none" stroke-width="3" opacity="0.18"/>
  <path d="M408 484 Q435 462 462 484" stroke="#B8856C" fill="none" stroke-width="2.5" opacity="0.12"/>
</svg>
